<svg width="29" height="29" viewBox="0 0 29 29" fill="none" xmlns="http://www.w3.org/2000/svg">
<g clip-path="url(#clip0_10_97)">
<path fill-rule="evenodd" clip-rule="evenodd" d="M12.4021 6.28517C14.6318 6.28517 16.4602 8.25729 16.4602 10.2451C16.4602 11.3274 15.9244 12.603 15.0763 13.5406C16.4555 14.1697 17.8998 15.1585 18.7707 16.2972C20.1678 18.124 19.9206 19.1282 19.9206 20.863C19.9206 24.4623 5.36908 24.4582 5.23384 20.863C5.16906 19.1411 5.09582 18.2122 6.31915 16.4071C7.10837 15.2426 8.4723 14.2253 9.80131 13.5737C8.93524 12.635 8.38594 11.341 8.38594 10.2451C8.38594 8.25729 10.1725 6.28517 12.4021 6.28517Z" fill="black" fill-opacity="0.75" stroke="black" stroke-opacity="0.75" stroke-width="1.5" stroke-linecap="round" stroke-linejoin="round"/>
<path d="M17.5208 6.04167C19.5647 6.04167 20.9649 8.01057 20.9649 9.44509C20.9649 10.4553 20.7303 11.6017 19.953 12.4768C21.2172 13.064 22.5412 13.9869 23.3395 15.0496C24.6202 16.7546 24.3936 18.6602 24.3936 19.2305C24.3936 20.0597 23.5883 20.6843 22.3752 21.1041" stroke="black" stroke-opacity="0.75" stroke-width="1.5" stroke-linecap="round" stroke-linejoin="round"/>
</g>
<defs>
<clipPath id="clip0_10_97">
<rect width="29" height="29" fill="white"/>
</clipPath>
</defs>
</svg>