<svg width="29" height="29" viewBox="0 0 29 29" fill="none" xmlns="http://www.w3.org/2000/svg">
<g clip-path="url(#clip0_10_104)">
<path fill-rule="evenodd" clip-rule="evenodd" d="M14.2285 7.4935C16.2753 7.4935 17.9537 9.32768 17.9537 11.1765C17.9537 12.1831 17.4618 13.3695 16.6833 14.2414C17.9494 14.8266 19.2753 15.7462 20.0747 16.8053C21.3573 18.5043 21.1303 19.4383 21.1303 21.0517C21.1303 24.3993 7.7722 24.3955 7.64805 21.0517C7.58858 19.4502 7.52135 18.5863 8.64435 16.9075C9.36885 15.8244 10.6209 14.8783 11.8409 14.2723C11.0459 13.3992 10.5416 12.1957 10.5416 11.1765C10.5416 9.32768 12.1817 7.4935 14.2285 7.4935Z" fill="black" fill-opacity="0.75" stroke="black" stroke-opacity="0.75" stroke-width="1.5" stroke-linecap="round" stroke-linejoin="round"/>
<path d="M9.0625 7.25C7.37719 7.25 6.22255 9.06095 6.22255 10.3804C6.22255 11.3095 6.41599 12.364 7.057 13.1689C6.01456 13.709 4.92282 14.5578 4.26455 15.5353C3.2085 17.1036 3.39538 18.8563 3.39538 19.3808C3.39538 20.1435 4.05941 20.7179 5.05966 21.1041" stroke="black" stroke-opacity="0.75" stroke-width="1.5" stroke-linecap="round" stroke-linejoin="round"/>
<path d="M19.6959 7.25C21.3812 7.25 22.5358 9.06095 22.5358 10.3804C22.5358 11.3095 22.3424 12.364 21.7014 13.1689C22.7438 13.709 23.8355 14.5578 24.4938 15.5353C25.5499 17.1036 25.363 18.8563 25.363 19.3808C25.363 20.1435 24.6989 20.7179 23.6987 21.1041" stroke="black" stroke-opacity="0.75" stroke-width="1.5" stroke-linecap="round" stroke-linejoin="round"/>
</g>
<defs>
<clipPath id="clip0_10_104">
<rect width="29" height="29" fill="white"/>
</clipPath>
</defs>
</svg>