<svg width="29" height="29" viewBox="0 0 29 29" fill="none" xmlns="http://www.w3.org/2000/svg">
<g clip-path="url(#clip0_12_151)">
<path fill-rule="evenodd" clip-rule="evenodd" d="M14.4965 18.7122C12.4985 18.7122 10.8848 17.0943 10.8848 15.0987C10.8848 13.114 12.4979 11.4967 14.4965 11.4967C16.4951 11.4967 18.1131 13.114 18.1131 15.0987C18.1131 17.0943 16.4945 18.7122 14.4965 18.7122ZM14.5031 8.45831C9.54592 8.45831 6.40785 12.1461 5.13123 14.0245C4.74094 14.6039 4.73188 15.608 5.11734 16.1886C6.36495 18.0779 9.44623 21.75 14.5031 21.75C19.554 21.75 22.6359 18.0779 23.8829 16.1886C24.269 15.608 24.2581 14.6039 23.8684 14.0245C22.5918 12.1461 19.4598 8.45831 14.5031 8.45831Z" stroke="#0C0C0C" stroke-opacity="0.75" stroke-width="1.5" stroke-linecap="round" stroke-linejoin="round"/>
</g>
<defs>
<clipPath id="clip0_12_151">
<rect width="29" height="29" fill="white"/>
</clipPath>
</defs>
</svg>