<svg width="29" height="29" viewBox="0 0 29 29" fill="none" xmlns="http://www.w3.org/2000/svg">
<g clip-path="url(#clip0_12_184)">
<path d="M14.9833 24.2875C20.3221 24.2875 24.65 19.9596 24.65 14.6208C24.65 9.28208 20.3221 4.95416 14.9833 4.95416C9.64456 4.95416 5.31665 9.28208 5.31665 14.6208C5.31665 19.9596 9.64456 24.2875 14.9833 24.2875Z" stroke="black" stroke-opacity="0.75" stroke-width="1.5"/>
<path d="M18.191 5.55042C16.7546 6.48814 15.5679 7.68679 15.5679 8.66743C15.5679 10.1384 13.8938 8.74052 12.7589 9.43946C11.6239 10.1384 15.5679 9.50325 15.5679 11.5097C15.5679 13.5161 17.4774 9.50325 18.4533 11.5097C19.4293 13.5161 16.2962 15.7255 14.9833 14.6208C13.6704 13.5161 11.569 13.1467 10.5154 14.6208C9.46185 16.0949 12.1743 22.5923 14.9833 23.5625M20.019 22.6018C19.0932 19.807 19.0932 17.6411 20.019 16.6747C21.4077 15.225 20.019 13.5161 21.5423 13.5161C22.7017 13.5161 23.3896 14.3556 24.4325 15.4492" stroke="black" stroke-opacity="0.75" stroke-width="1.5" stroke-linecap="round" stroke-linejoin="round"/>
</g>
<defs>
<clipPath id="clip0_12_184">
<rect width="29" height="29" fill="white"/>
</clipPath>
</defs>
</svg>