<svg width="29" height="29" viewBox="0 0 29 29" fill="none" xmlns="http://www.w3.org/2000/svg">
<g clip-path="url(#clip0_10_84)">
<path fill-rule="evenodd" clip-rule="evenodd" d="M14.4485 6.04167C16.6781 6.04167 18.5065 8.01379 18.5065 10.0016C18.5065 11.0839 17.9707 12.3595 17.1227 13.2971C18.5018 13.9262 19.9461 14.915 20.817 16.0537C22.2142 17.8805 21.9669 18.8847 21.9669 20.6195C21.9669 24.2188 7.41541 24.2147 7.28016 20.6195C7.21538 18.8976 7.14215 17.9687 8.36547 16.1636C9.1547 14.9991 10.5186 13.9818 11.8476 13.3302C10.9816 12.3915 10.4323 11.0975 10.4323 10.0016C10.4323 8.01379 12.2188 6.04167 14.4485 6.04167Z" stroke="black" stroke-width="1.5" stroke-linecap="round" stroke-linejoin="round"/>
</g>
<defs>
<clipPath id="clip0_10_84">
<rect width="29" height="29" fill="white"/>
</clipPath>
</defs>
</svg>