<svg width="29" height="29" viewBox="0 0 29 29" fill="none" xmlns="http://www.w3.org/2000/svg">
<g clip-path="url(#clip0_12_175)">
<path fill-rule="evenodd" clip-rule="evenodd" d="M6.64581 8.18984C6.64581 7.00345 7.60757 6.04169 8.79396 6.04169H18.4606C19.647 6.04169 20.6088 7.00345 20.6088 8.18984V9.26391C21.7952 9.26391 22.7569 10.2257 22.7569 11.4121V13.5602H20.6088C19.4224 13.5602 18.4606 14.522 18.4606 15.7084C18.4606 16.8269 19.3221 17.7443 20.4177 17.8332L20.6087 17.8402L22.7569 17.824V20.0047C22.7569 21.191 21.7952 22.1528 20.6088 22.1528H8.79396C7.60757 22.1528 6.64581 21.191 6.64581 20.0047V8.18984Z" stroke="black" stroke-opacity="0.75" stroke-width="1.5" stroke-linecap="round" stroke-linejoin="round"/>
<path d="M20.6088 9.26392H6.64581" stroke="black" stroke-opacity="0.75" stroke-width="1.5" stroke-linecap="round" stroke-linejoin="round"/>
<path d="M21.5486 13.5602H24.2338V17.8565H21.5486" stroke="black" stroke-opacity="0.75" stroke-width="1.5" stroke-linecap="round" stroke-linejoin="round"/>
</g>
<defs>
<clipPath id="clip0_12_175">
<rect width="29" height="29" fill="white"/>
</clipPath>
</defs>
</svg>